<?xml version="1.0" encoding="utf-8"?><svg version="1.1" id="Layer_1" xmlns="http://www.w3.org/2000/svg" xmlns:xlink="http://www.w3.org/1999/xlink" x="0px" y="0px" viewBox="0 0 116.6 126.7" style="enable-background:new 0 0 116.6 126.7;" xml:space="preserve"><style type="text/css">.st0{fill:#F7BC00;}.st1{fill:#3CBC0D;}.st2{fill:#F46719;}.st3{fill:#FFFFFF;}</style><g><g><path class="st0" d="M72.1,0C61.3,0,52.5,8.8,52.5,19.6s8.8,19.6,19.6,19.6s19.6-8.8,19.6-19.6S82.9,0,72.1,0z M72.1,35.5c-8.8,0-15.9-7.1-15.9-15.9S63.3,3.7,72.1,3.7s15.9,7.1,15.9,15.9S80.9,35.5,72.1,35.5z"/><path class="st1" d="M87.6,29.7L62,4.2c-0.6-0.6-1.5-0.6-2.1,0L34.5,29.7c-0.6,0.6-0.6,1.5,0,2.1L60,57.3c0.6,0.6,1.5,0.6,2.1,0l25.5-25.5C88.1,31.2,88.1,30.3,87.6,29.7z M61,53.2L38.5,30.7L61,8.2l22.5,22.5L61,53.2z"/><path class="st2" d="M62.2,54.3c0,0-18.7-18.7-18.7-18.7l-6.2-6.1c-0.8-0.9-2.8-0.9-3.3,1.1l-9,33.9c-0.4,1.5,0.9,2.7,2.1,2.3l34.1-9.1C62.6,57.2,63.5,55.7,62.2,54.3z M29.2,62.6L37,34.2l20.4,20.5L29.2,62.6z"/></g><g><path class="st3" d="M8.1,113.6c1.2,0,2.1-0.1,2.6-0.4c0.5-0.2,0.8-0.7,0.8-1.4c0-0.5-0.3-1-1-1.4c-0.6-0.4-1.6-0.8-3-1.4c-1-0.4-2-0.8-2.8-1.2c-0.8-0.4-1.6-0.9-2.1-1.5c-0.6-0.6-1-1.3-1.4-2.1c-0.3-0.8-0.5-1.8-0.5-2.9c0-2.2,0.8-3.9,2.4-5.2c1.6-1.3,3.9-1.9,6.7-1.9c1.4,0,2.8,0.1,4.1,0.4c1.3,0.3,2.3,0.5,3.1,0.8l-1.2,5.1c-0.8-0.3-1.6-0.5-2.5-0.7c-0.9-0.2-1.9-0.3-3-0.3c-2.1,0-3.1,0.6-3.1,1.7c0,0.3,0,0.5,0.1,0.7c0.1,0.2,0.3,0.4,0.5,0.6c0.3,0.2,0.6,0.4,1.1,0.6c0.5,0.2,1,0.5,1.8,0.7c1.4,0.5,2.6,1.1,3.6,1.6c0.9,0.5,1.7,1.1,2.2,1.7c0.5,0.6,0.9,1.3,1.2,2c0.2,0.7,0.3,1.6,0.3,2.6c0,2.3-0.9,4-2.6,5.2c-1.7,1.2-4.2,1.8-7.3,1.8c-2.1,0-3.8-0.2-5.2-0.5s-2.3-0.6-2.9-0.9l1.1-5.4c1.1,0.4,2.3,0.8,3.5,1C5.7,113.5,6.9,113.6,8.1,113.6z"/><path class="st3" d="M37.1,105c-0.6,2.2-1.2,4.5-1.9,6.7c-0.7,2.2-1.4,4.4-2.1,6.7h-5.1c-0.5-1.2-1.1-2.7-1.7-4.4c-0.6-1.7-1.3-3.6-1.9-5.6c-0.7-2-1.3-4.2-2-6.4c-0.7-2.3-1.4-4.5-2-6.8h7c0.2,1.1,0.5,2.2,0.8,3.5c0.3,1.3,0.6,2.5,0.9,3.9c0.3,1.3,0.6,2.7,1,4c0.3,1.3,0.7,2.6,1,3.9c0.4-1.3,0.8-2.6,1.1-4c0.4-1.4,0.7-2.7,1.1-4c0.3-1.3,0.7-2.6,1-3.8c0.3-1.2,0.6-2.4,0.8-3.4h4.8c0.2,1.1,0.5,2.2,0.8,3.4c0.3,1.2,0.6,2.5,0.9,3.8c0.3,1.3,0.7,2.7,1,4c0.4,1.4,0.7,2.7,1.1,4c0.4-1.2,0.7-2.5,1.1-3.9c0.4-1.3,0.7-2.7,1-4c0.3-1.3,0.6-2.6,0.9-3.9c0.3-1.3,0.5-2.4,0.8-3.5h6.9c-0.7,2.3-1.3,4.6-2,6.8c-0.7,2.3-1.4,4.4-2,6.4c-0.7,2-1.3,3.9-2,5.6c-0.6,1.7-1.2,3.2-1.8,4.4h-5.1c-0.7-2.2-1.5-4.5-2.2-6.7C38.3,109.5,37.7,107.2,37.1,105z"/><path class="st3" d="M64.8,88.3c0,1.2-0.4,2.2-1.2,2.9c-0.8,0.7-1.7,1-2.8,1s-2-0.3-2.8-1c-0.8-0.7-1.2-1.6-1.2-2.9c0-1.2,0.4-2.2,1.2-2.9c0.8-0.7,1.7-1,2.8-1s2,0.3,2.8,1C64.4,86.2,64.8,87.1,64.8,88.3z M64.2,118.4h-6.6V95.1h6.6V118.4z"/><path class="st3" d="M70.4,95.9c1.1-0.3,2.6-0.6,4.3-0.9s3.6-0.4,5.6-0.4c2,0,3.6,0.3,4.9,0.8c1.3,0.5,2.4,1.2,3.1,2.2c0.8,0.9,1.3,2.1,1.6,3.4c0.3,1.3,0.5,2.7,0.5,4.3v13.2h-6.6V106c0-2.1-0.3-3.6-0.8-4.5c-0.6-0.9-1.6-1.3-3.1-1.3c-0.5,0-1,0-1.5,0.1c-0.5,0-1,0.1-1.4,0.2v18h-6.6V95.9z"/><path class="st3" d="M116.6,115.4c0,3.8-1,6.6-2.9,8.5c-1.9,1.8-4.9,2.8-9,2.8c-1.4,0-2.8-0.1-4.3-0.4c-1.4-0.3-2.7-0.6-3.9-1l1.2-5.5c1,0.4,2.1,0.7,3.3,1c1.1,0.2,2.4,0.4,3.9,0.4c1.9,0,3.2-0.4,4-1.2c0.8-0.8,1.2-1.9,1.2-3.2v-0.8c-0.7,0.3-1.4,0.6-2.2,0.7c-0.8,0.2-1.6,0.2-2.5,0.2c-3.2,0-5.7-1-7.4-2.9c-1.7-1.9-2.6-4.6-2.6-8c0-1.7,0.3-3.3,0.8-4.7c0.5-1.4,1.3-2.6,2.3-3.6c1-1,2.3-1.8,3.7-2.3c1.5-0.5,3.1-0.8,5-0.8c0.8,0,1.6,0,2.5,0.1c0.8,0.1,1.7,0.2,2.5,0.3c0.8,0.1,1.6,0.3,2.4,0.4c0.8,0.2,1.4,0.3,2,0.5V115.4z M102.1,106c0,3.7,1.5,5.5,4.5,5.5c0.7,0,1.3-0.1,1.9-0.3c0.6-0.2,1.1-0.4,1.5-0.6v-10.5c-0.3-0.1-0.7-0.1-1.2-0.2c-0.4,0-1-0.1-1.6-0.1c-1.7,0-3,0.6-3.9,1.7C102.6,102.7,102.1,104.2,102.1,106z"/></g></g></svg>